HIERARCHY
ROOT Hips
{
	OFFSET 0.000000 0.000000 0.000000
	CHANNELS 6 Xposition Yposition Zposition Zrotation Yrotation Xrotation 
	JOINT LHipJoint
	{
		OFFSET 0.000000 0.000000 0.000000
		CHANNELS 3 Zrotation Yrotation Xrotation
		JOINT LeftUpLeg
		{
			OFFSET 1.363060 -1.794630 0.839290
			CHANNELS 3 Zrotation Yrotation Xrotation
			JOINT LeftLeg
			{
				OFFSET 2.448110 -6.726130 0.000000
				CHANNELS 3 Zrotation Yrotation Xrotation
				JOINT LeftFoot
				{
					OFFSET 2.562200 -7.039590 0.000000
					CHANNELS 3 Zrotation Yrotation Xrotation
					JOINT LeftToeBase
					{
						OFFSET 0.157640 -0.433110 2.322550
						CHANNELS 3 Zrotation Yrotation Xrotation
						End Site
						{
							OFFSET 0.000000 0.000000 0.000000
						}
					}
				}
			}
		}
	}
	JOINT RHipJoint
	{
		OFFSET 0.000000 0.000000 0.000000
		CHANNELS 3 Zrotation Yrotation Xrotation
		JOINT RightUpLeg
		{
			OFFSET -1.305520 -1.794630 0.839290
			CHANNELS 3 Zrotation Yrotation Xrotation
			JOINT RightLeg
			{
				OFFSET -2.542530 -6.985550 0.000000
				CHANNELS 3 Zrotation Yrotation Xrotation
				JOINT RightFoot
				{
					OFFSET -2.568260 -7.056230 0.000000
					CHANNELS 3 Zrotation Yrotation Xrotation
					JOINT RightToeBase
					{
						OFFSET -0.164730 -0.452590 2.363150
						CHANNELS 3 Zrotation Yrotation Xrotation
						End Site
						{
							OFFSET 0.000000 0.000000 0.000000
						}
					}
				}
			}
		}
	}
	JOINT LowerBack
	{
		OFFSET 0.000000 0.000000 0.000000
		CHANNELS 3 Zrotation Yrotation Xrotation
		JOINT Spine
		{
			OFFSET 0.028270 2.035590 -0.193380
			CHANNELS 3 Zrotation Yrotation Xrotation
			JOINT Spine1
			{
				OFFSET 0.056720 2.048850 -0.042750
				CHANNELS 3 Zrotation Yrotation Xrotation
				JOINT Neck
				{
					OFFSET 0.000000 0.000000 0.000000
					CHANNELS 3 Zrotation Yrotation Xrotation
					JOINT Neck1
					{
						OFFSET -0.054170 1.746240 0.172020
						CHANNELS 3 Zrotation Yrotation Xrotation
						JOINT Head
						{
							OFFSET 0.104070 1.761360 -0.123970
							CHANNELS 3 Zrotation Yrotation Xrotation
							End Site
							{
								OFFSET 0.000000 0.000000 0.000000
							}
						}
					}
				}
				JOINT LeftShoulder
				{
					OFFSET 0.000000 0.000000 0.000000
					CHANNELS 3 Zrotation Yrotation Xrotation
					JOINT LeftArm
					{
						OFFSET 3.362410 1.200890 -0.311210
						CHANNELS 3 Zrotation Yrotation Xrotation
						JOINT LeftForeArm
						{
							OFFSET 4.983000 -0.000000 -0.000000
							CHANNELS 3 Zrotation Yrotation Xrotation
							JOINT LeftHand
							{
								OFFSET 3.483560 -0.000000 -0.000000
								CHANNELS 3 Zrotation Yrotation Xrotation
								JOINT LeftFingerBase
								{
									OFFSET 0.000000 0.000000 0.000000
									CHANNELS 3 Zrotation Yrotation Xrotation
									JOINT LeftHandIndex1
									{
										OFFSET 0.715260 -0.000000 -0.000000
										CHANNELS 3 Zrotation Yrotation Xrotation
										End Site
										{
											OFFSET 0.000000 0.000000 0.000000
										}
									}
								}
								JOINT LThumb
								{
									OFFSET 0.000000 0.000000 0.000000
									CHANNELS 3 Zrotation Yrotation Xrotation
									End Site
									{
										OFFSET 0.000000 0.000000 0.000000
									}
								}
							}
						}
					}
				}
				JOINT RightShoulder
				{
					OFFSET 0.000000 0.000000 0.000000
					CHANNELS 3 Zrotation Yrotation Xrotation
					JOINT RightArm
					{
						OFFSET -3.136600 1.374050 -0.404650
						CHANNELS 3 Zrotation Yrotation Xrotation
						JOINT RightForeArm
						{
							OFFSET -5.241900 -0.000000 -0.000000
							CHANNELS 3 Zrotation Yrotation Xrotation
							JOINT RightHand
							{
								OFFSET -3.444170 -0.000000 -0.000000
								CHANNELS 3 Zrotation Yrotation Xrotation
								JOINT RightFingerBase
								{
									OFFSET 0.000000 0.000000 0.000000
									CHANNELS 3 Zrotation Yrotation Xrotation
									JOINT RightHandIndex1
									{
										OFFSET -0.622530 -0.000000 -0.000000
										CHANNELS 3 Zrotation Yrotation Xrotation
										End Site
										{
											OFFSET 0.000000 0.000000 0.000000
										}
									}
								}
								JOINT RThumb
								{
									OFFSET 0.000000 0.000000 0.000000
									CHANNELS 3 Zrotation Yrotation Xrotation
									End Site
									{
										OFFSET 0.000000 0.000000 0.000000
									}
								}
							}
						}
					}
				}
			}
		}
	}
}
MOTION
Frames: 7
Frame Time: 0.016667
0.305100 17.778384 0.305100 2.045200 -4.243427 2.650555 -22.690428 17.518464 14.578604 1.980199 -6.195074 -24.804580 -6.959015 -8.062433 -22.963942 -0.355588 9.717862 17.598393 0.000000 0.000000 0.000000 10.471526 -20.375356 8.550187 2.045746 23.995036 -23.124182 21.668164 28.857074 -47.781143 22.001050 -59.123045 18.743491 0.000000 0.000000 0.000000 14.781617 7.680870 -19.309572 -16.464771 7.744390 57.889433 4.932725 0.000854 -25.450408 8.518832 -0.776130 -18.521908 -3.513821 -0.397709 -3.289833 0.000000 0.000000 0.000000 2.390392 10.735156 7.498188 -70.554878 -5.774944 22.038171 -26.330356 -72.602945 1.731308 -11.423405 10.151388 0.865627 -11.447605 10.124581 0.000000 0.000000 0.000000 0.000000 0.000000 0.000000 0.000000 -6.394690 -15.296449 5.889190 67.399903 4.678175 19.622929 18.018301 73.130428 0.415646 -0.854818 12.124991 0.205575 -0.872368 12.128175 0.000000 0.000000 0.000000 0.000000 0.000000 0.000000 0.000000 
0.353263 17.836782 0.503660 1.587496 -4.810933 3.453165 -22.639754 18.439139 14.522445 2.515006 -6.785791 -27.092348 -7.880605 -6.839527 -19.448988 -0.333671 8.012122 14.374723 0.000000 0.000000 0.000000 9.245953 -21.014362 7.132022 4.285810 24.863880 -23.107937 20.120045 30.188866 -44.744715 27.598910 -55.714232 25.702957 0.000000 0.000000 0.000000 15.492487 6.667815 -16.775597 -16.570355 7.216183 52.792083 1.941371 -0.513222 -24.280147 7.114954 -0.256311 -15.551799 -0.620987 0.007246 -1.654011 0.000000 0.000000 0.000000 -1.440191 12.945425 6.192036 -71.196495 -12.571908 0.256142 -156.224434 -84.257151 173.123925 19.780723 -13.424607 -4.104474 21.927670 -12.175370 -0.000000 0.000000 0.000000 0.000000 0.000000 0.000000 0.000000 -4.086732 -16.687406 6.536661 67.404980 6.323563 10.391128 25.596807 51.609264 -0.024720 -1.270679 2.206564 -0.012417 -1.273274 2.206133 0.000000 0.000000 0.000000 0.000000 0.000000 0.000000 0.000000 
0.403504 17.896998 0.701797 0.898289 -5.820326 4.364594 -22.564845 19.622884 14.416639 3.233186 -7.382202 -29.789122 -8.686167 -5.425854 -15.618260 -0.280020 6.360812 11.153543 0.000000 0.000000 0.000000 7.290836 -22.650967 5.648468 9.072190 26.584015 -22.218823 20.325029 30.779059 -39.708517 29.605145 -51.479639 27.474799 0.000000 0.000000 0.000000 16.745697 5.256189 -14.159341 -17.853851 6.640538 45.653585 4.544210 1.050422 -18.380258 3.784127 -0.521614 -12.763663 -1.634055 -0.001933 -2.295561 0.000000 0.000000 0.000000 4.136572 18.031862 1.371398 -72.096347 -24.942613 -11.172139 22.879170 -81.569678 -75.628280 51.095612 49.302618 -16.085456 3.934938 -8.023026 0.000006 0.000000 0.000000 0.000000 0.000000 0.000000 0.000000 -3.129492 -15.310550 3.419325 66.013713 9.634603 2.625208 20.914873 30.066567 0.015015 -2.569394 -4.206610 0.007564 -2.571668 -4.205405 0.000000 0.000000 0.000000 0.000000 0.000000 0.000000 0.000000 
0.018920 17.644851 0.457525 -1.434653 -5.242426 6.869718 -8.126628 17.322584 3.750671 -11.687173 -6.851784 -18.825544 -8.750874 -3.915969 -11.800216 -0.037688 3.694163 7.008495 0.000000 0.000000 0.000000 6.708786 -21.188503 -2.797583 22.198623 25.959833 -15.010472 15.221158 29.648868 -34.517411 49.457261 -53.267189 9.355728 0.000000 0.000000 0.000000 0.560477 -0.451801 7.428752 4.425631 -0.703615 4.872770 -2.747105 1.702589 -11.445002 -1.926889 1.003800 2.063653 2.942997 -0.005925 2.735088 0.000000 0.000000 0.000000 1.200782 13.743697 -13.548629 -61.179672 -0.335380 14.113279 -102.613054 -79.020006 -129.642379 132.033348 -6.033496 89.285468 34.277529 -29.708420 -0.000000 0.000000 0.000000 0.000000 0.000000 0.000000 0.000000 -1.417527 -9.670831 8.111552 65.823128 7.685308 1.039320 18.407139 22.666739 0.129567 -2.848605 -5.047706 0.064909 -2.854021 -5.046475 -0.000000 0.000000 0.000000 0.000000 0.000000 0.000000 0.000000 
-0.049925 17.618593 0.527573 -1.683761 -7.032107 6.508120 -4.314542 19.468763 2.641663 -15.420456 -7.251881 -18.017713 -9.037231 -2.185619 -7.390863 0.082968 2.276484 3.954774 0.000000 0.000000 0.000000 1.571209 -25.449889 -8.206440 38.237393 24.517150 -6.150039 13.125487 28.214503 -24.166400 59.465796 -46.793120 1.402105 0.000000 0.000000 0.000000 1.250490 -0.458670 15.310911 2.994277 -0.260258 -5.362824 -3.294111 2.871316 -8.260070 -7.552991 3.220931 6.902436 4.702256 -0.100365 4.244088 0.000000 0.000000 0.000000 3.390435 14.556590 -16.003800 -90.021312 -15.422409 -44.681003 14.620987 -56.789503 -24.269574 -53.561316 -30.740645 -152.239997 146.601717 -19.655070 -0.000002 0.000000 0.000000 0.000000 0.000000 0.000000 0.000000 0.861457 -9.197339 7.677115 65.630714 8.031307 0.382345 16.978819 17.871510 0.202242 -2.832989 -5.290504 0.101228 -2.839830 -5.290170 -0.000000 0.000000 0.000000 0.000000 0.000000 0.000000 0.000000 
-0.112703 17.595424 0.599819 -4.769634 -1.339593 -2.064938 1.547818 23.814380 4.946953 -15.674501 -12.972151 -21.326073 -9.526156 4.162644 15.156871 -0.171238 -1.916439 -3.488206 0.000000 0.000000 0.000000 -5.734164 -25.168919 -23.736663 54.017486 6.418159 12.951697 0.277172 22.474849 -16.332753 66.006402 -31.803030 -2.997913 0.000000 0.000000 0.000000 -1.675042 -2.019609 24.443329 3.388113 -2.814221 -3.645361 5.396892 1.075998 -11.986040 -7.777869 4.460029 16.267884 5.809610 -0.408825 6.690131 0.000000 0.000000 0.000000 14.436127 8.270607 -30.882659 -43.967006 -11.399184 -4.354331 -45.866252 -11.086243 51.585160 47.061944 -40.897189 34.512204 113.727108 -77.458926 0.000001 0.000000 0.000000 0.000000 0.000000 0.000000 0.000000 -0.863100 -6.051099 9.631562 60.905512 7.239973 0.310817 16.801069 14.568612 0.283700 -2.826882 -5.263650 0.142009 -2.835763 -5.264431 -0.000000 0.000000 0.000000 0.000000 0.000000 0.000000 0.000000 
-0.173400 17.572446 0.670304 -9.754245 7.782188 -6.589802 1.258603 19.278033 3.406158 -8.616392 -17.967564 -27.195190 -9.175360 9.741175 34.188197 -0.944422 0.231501 -4.975245 0.000000 0.000000 0.000000 -10.291616 -15.179046 -44.389756 58.988504 5.291691 22.299107 -3.513575 16.501747 6.061625 62.395777 -14.142299 -13.584946 0.000000 0.000000 0.000000 -1.926199 -3.695270 42.273305 6.064602 -2.930346 -4.854607 6.853366 3.525124 -23.657521 -5.120439 4.477394 -2.584931 8.811829 -0.590980 9.862410 0.000000 0.000000 0.000000 11.347462 21.462775 -45.177729 -92.791234 -32.563653 -66.464379 69.640779 -83.853511 -73.168024 177.092585 58.609020 -163.229927 51.736139 76.809653 -0.000000 0.000000 0.000000 0.000000 0.000000 0.000000 0.000000 -0.295317 -20.579559 1.845837 54.614641 11.994934 2.481957 18.240849 8.293412 0.280701 -2.660602 -5.542896 0.140508 -2.668083 -5.544582 -0.000000 0.000000 0.000000 0.000000 0.000000 0.000000 0.000000 
